<?xml version="1.0" encoding="UTF-8"?>
<svg width="60px" height="60px" viewBox="0 0 60 60" version="1.1" xmlns="http://www.w3.org/2000/svg" xmlns:xlink="http://www.w3.org/1999/xlink">
    <!-- Generator: Sketch 45 (43475) - http://www.bohemiancoding.com/sketch -->
    <title>presentation</title>
    <desc>Created with Sketch.</desc>
    <defs>
        <linearGradient x1="0%" y1="0%" x2="100%" y2="0%" id="linearGradient-1">
            <stop stop-color="#80C3F3" offset="0%"></stop>
            <stop stop-color="#4A90E2" offset="100%"></stop>
        </linearGradient>
    </defs>
    <g id="Page-1" stroke="none" stroke-width="1" fill="none" fill-rule="evenodd">
        <g id="Landing" transform="translate(-379.000000, -1070.000000)" fill="url(#linearGradient-1)">
            <g id="Features" transform="translate(-360.000000, 618.000000)">
                <g id="Group" transform="translate(609.000000, 452.000000)">
                    <g id="presentation" transform="translate(130.000000, 0.000000)">
                        <path d="M6,15 L21,15 C21.552,15 22,14.553 22,14 C22,13.447 21.552,13 21,13 L6,13 C5.448,13 5,13.447 5,14 C5,14.553 5.448,15 6,15 L6,15 Z" id="Shape"></path>
                        <path d="M6,11 L15,11 C15.552,11 16,10.553 16,10 C16,9.447 15.552,9 15,9 L6,9 C5.448,9 5,9.447 5,10 C5,10.553 5.448,11 6,11 L6,11 Z" id="Shape"></path>
                        <path d="M22,18 C22,17.447 21.552,17 21,17 L6,17 C5.448,17 5,17.447 5,18 C5,18.553 5.448,19 6,19 L21,19 C21.552,19 22,18.553 22,18 L22,18 Z" id="Shape"></path>
                        <path d="M60,4 L31,4 L31,1 C31,0.447 30.552,0 30,0 C29.448,0 29,0.447 29,1 L29,4 L0,4 L0,46 L27.586,46 L15.293,58.293 C14.902,58.684 14.902,59.316 15.293,59.707 C15.488,59.902 15.744,60 16,60 C16.256,60 16.512,59.902 16.707,59.707 L29,47.414 L29,57 C29,57.553 29.448,58 30,58 C30.552,58 31,57.553 31,57 L31,47.414 L43.293,59.707 C43.488,59.902 43.744,60 44,60 C44.256,60 44.512,59.902 44.707,59.707 C45.098,59.316 45.098,58.684 44.707,58.293 L32.414,46 L60,46 L60,4 L60,4 Z M58,44 L2,44 L2,6 L58,6 L58,44 L58,44 Z" id="Shape"></path>
                        <path d="M28.019,31.567 C27.424,31.215 26.74,31 26,31 C25.528,31 25.082,31.097 24.662,31.247 L22.753,29.339 C22.903,28.918 23,28.472 23,28 C23,25.794 21.206,24 19,24 C16.794,24 15,25.794 15,28 C15,28.472 15.097,28.918 15.247,29.339 L13.338,31.247 C12.918,31.097 12.472,31 12,31 C9.794,31 8,32.794 8,35 C8,37.206 9.794,39 12,39 C14.206,39 16,37.206 16,35 C16,34.003 15.62,33.101 15.014,32.4 L16.399,31.015 C17.101,31.62 18.003,32 19,32 C19.997,32 20.899,31.62 21.6,31.015 L22.985,32.4 C22.38,33.101 22,34.003 22,35 C22,37.206 23.794,39 26,39 C28.206,39 30,37.206 30,35 C30,34.26 29.785,33.576 29.433,32.981 L36.4,26.015 C37.101,26.62 38.003,27 39,27 C39.997,27 40.899,26.62 41.6,26.015 L45.986,30.4 C45.38,31.101 45,32.003 45,33 C45,35.206 46.794,37 49,37 C51.206,37 53,35.206 53,33 C53,30.794 51.206,29 49,29 C48.528,29 48.082,29.097 47.662,29.247 L42.753,24.339 C42.903,23.918 43,23.472 43,23 C43,20.794 41.206,19 39,19 C36.794,19 35,20.794 35,23 C35,23.472 35.097,23.918 35.247,24.339 L28.019,31.567 L28.019,31.567 Z M12,37 C10.897,37 10,36.103 10,35 C10,33.897 10.897,33 12,33 C13.103,33 14,33.897 14,35 C14,36.103 13.103,37 12,37 L12,37 Z M19,30 C17.897,30 17,29.103 17,28 C17,26.897 17.897,26 19,26 C20.103,26 21,26.897 21,28 C21,29.103 20.103,30 19,30 L19,30 Z M26,37 C24.897,37 24,36.103 24,35 C24,33.897 24.897,33 26,33 C27.103,33 28,33.897 28,35 C28,36.103 27.103,37 26,37 L26,37 Z M51,33 C51,34.103 50.103,35 49,35 C47.897,35 47,34.103 47,33 C47,31.897 47.897,31 49,31 C50.103,31 51,31.897 51,33 L51,33 Z M39,21 C40.103,21 41,21.897 41,23 C41,24.103 40.103,25 39,25 C37.897,25 37,24.103 37,23 C37,21.897 37.897,21 39,21 L39,21 Z" id="Shape"></path>
                    </g>
                </g>
            </g>
        </g>
    </g>
</svg>