<?xml version="1.0" encoding="UTF-8"?>
<svg width="60px" height="60px" viewBox="0 0 60 60" version="1.1" xmlns="http://www.w3.org/2000/svg" xmlns:xlink="http://www.w3.org/1999/xlink">
    <!-- Generator: Sketch 45 (43475) - http://www.bohemiancoding.com/sketch -->
    <title>time-is-money</title>
    <desc>Created with Sketch.</desc>
    <defs>
        <linearGradient x1="0.942568236%" y1="0%" x2="100%" y2="0%" id="linearGradient-1">
            <stop stop-color="#B5EB45" offset="0%"></stop>
            <stop stop-color="#7ED321" offset="100%"></stop>
        </linearGradient>
    </defs>
    <g id="Page-1" stroke="none" stroke-width="1" fill="none" fill-rule="evenodd">
        <g id="Landing" transform="translate(-1160.000000, -1076.000000)" fill="url(#linearGradient-1)">
            <g id="Features" transform="translate(-360.000000, 618.000000)">
                <g id="Group-Copy-2" transform="translate(1391.000000, 458.000000)">
                    <g id="time-is-money" transform="translate(129.000000, 0.000000)">
                        <path d="M34,29.879 C34,28.02 32.72,26.468 31,26.021 L31,15.879 C31,15.326 30.552,14.879 30,14.879 C29.448,14.879 29,15.326 29,15.879 L29,26.021 C27.601,26.385 26.506,27.48 26.142,28.879 L19,28.879 C18.448,28.879 18,29.326 18,29.879 C18,30.432 18.448,30.879 19,30.879 L26.142,30.879 C26.589,32.6 28.142,33.879 30,33.879 C32.206,33.879 34,32.085 34,29.879 L34,29.879 Z M30,31.879 C28.897,31.879 28,30.982 28,29.879 C28,28.776 28.897,27.879 30,27.879 C31.103,27.879 32,28.776 32,29.879 C32,30.982 31.103,31.879 30,31.879 L30,31.879 Z" id="Shape"></path>
                        <path d="M30,9.879 C30.552,9.879 31,9.432 31,8.879 L31,7.879 C31,7.326 30.552,6.879 30,6.879 C29.448,6.879 29,7.326 29,7.879 L29,8.879 C29,9.432 29.448,9.879 30,9.879 L30,9.879 Z" id="Shape"></path>
                        <path d="M29,50.879 L29,51.879 C29,52.432 29.448,52.879 30,52.879 C30.552,52.879 31,52.432 31,51.879 L31,50.879 C31,50.326 30.552,49.879 30,49.879 C29.448,49.879 29,50.326 29,50.879 L29,50.879 Z" id="Shape"></path>
                        <path d="M52,30.879 C52.552,30.879 53,30.432 53,29.879 C53,29.326 52.552,28.879 52,28.879 L51,28.879 C50.448,28.879 50,29.326 50,29.879 C50,30.432 50.448,30.879 51,30.879 L52,30.879 L52,30.879 Z" id="Shape"></path>
                        <path d="M8,28.879 C7.448,28.879 7,29.326 7,29.879 C7,30.432 7.448,30.879 8,30.879 L9,30.879 C9.552,30.879 10,30.432 10,29.879 C10,29.326 9.552,28.879 9,28.879 L8,28.879 L8,28.879 Z" id="Shape"></path>
                        <path d="M44.849,16.029 C45.105,16.029 45.361,15.931 45.556,15.736 L46.263,15.029 C46.654,14.638 46.654,14.006 46.263,13.615 C45.872,13.224 45.24,13.224 44.849,13.615 L44.142,14.322 C43.751,14.713 43.751,15.345 44.142,15.736 C44.337,15.932 44.593,16.029 44.849,16.029 L44.849,16.029 Z" id="Shape"></path>
                        <path d="M14.444,44.021 L13.737,44.728 C13.346,45.119 13.346,45.751 13.737,46.142 C13.932,46.337 14.188,46.435 14.444,46.435 C14.7,46.435 14.956,46.337 15.151,46.142 L15.858,45.435 C16.249,45.044 16.249,44.412 15.858,44.021 C15.467,43.63 14.834,43.63 14.444,44.021 L14.444,44.021 Z" id="Shape"></path>
                        <path d="M15.858,14.322 L15.151,13.615 C14.76,13.224 14.128,13.224 13.737,13.615 C13.346,14.006 13.346,14.638 13.737,15.029 L14.444,15.736 C14.639,15.931 14.895,16.029 15.151,16.029 C15.407,16.029 15.663,15.931 15.858,15.736 C16.249,15.346 16.249,14.713 15.858,14.322 L15.858,14.322 Z" id="Shape"></path>
                        <path d="M30,0 C13.458,0 0,13.458 0,30 C0,46.542 13.458,60 30,60 C33.576,60 37.079,59.375 40.414,58.141 C40.932,57.95 41.196,57.374 41.005,56.857 C40.813,56.337 40.239,56.073 39.72,56.266 C36.608,57.416 33.338,58 30,58 C14.561,58 2,45.439 2,30 C2,14.561 14.561,2 30,2 C45.439,2 58,14.561 58,30 C58,33.34 57.416,36.609 56.265,39.719 C56.074,40.238 56.338,40.813 56.856,41.004 C57.374,41.199 57.949,40.932 58.141,40.414 C59.375,37.081 60,33.578 60,30 C60,13.458 46.542,0 30,0 L30,0 Z" id="Shape"></path>
                        <path d="M50,41.101 L50,40 C50,39.447 49.552,39 49,39 C48.448,39 48,39.447 48,40 L48,41.105 C46.909,41.327 45.915,41.906 45.182,42.773 C44.571,43.495 44.288,44.419 44.388,45.376 C44.49,46.355 44.994,47.263 45.771,47.867 L48,49.6 L48,55.038 C46.839,54.624 46,53.524 46,52.222 C46,51.669 45.552,51.222 45,51.222 C44.448,51.222 44,51.669 44,52.222 C44,54.636 45.721,56.656 48,57.121 L48,58 C48,58.553 48.448,59 49,59 C49.552,59 50,58.553 50,58 L50,57.118 C51.091,56.896 52.085,56.317 52.819,55.45 C53.43,54.726 53.712,53.802 53.612,52.845 C53.509,51.867 53.006,50.96 52.229,50.357 L50,48.622 L50,43.184 C51.161,43.598 52,44.698 52,46 C52,46.553 52.448,47 53,47 C53.552,47 54,46.553 54,46 C54,43.586 52.279,41.566 50,41.101 L50,41.101 Z M51.001,51.935 C51.35,52.206 51.577,52.615 51.623,53.053 C51.666,53.463 51.548,53.856 51.292,54.158 C50.944,54.569 50.494,54.857 50,55.033 L50,51.155 L51.001,51.935 L51.001,51.935 Z M46.999,46.288 C46.649,46.016 46.423,45.607 46.377,45.168 C46.335,44.759 46.452,44.367 46.708,44.064 C47.056,43.653 47.506,43.365 48,43.189 L48,47.066 L46.999,46.288 L46.999,46.288 Z" id="Shape"></path>
                    </g>
                </g>
            </g>
        </g>
    </g>
</svg>