<?xml version="1.0" encoding="UTF-8"?>
<svg width="1600px" height="489px" viewBox="0 0 1600 489" version="1.1" xmlns="http://www.w3.org/2000/svg" xmlns:xlink="http://www.w3.org/1999/xlink">
    <!-- Generator: Sketch 45 (43475) - http://www.bohemiancoding.com/sketch -->
    <title>Waves</title>
    <desc>Created with Sketch.</desc>
    <defs>
        <linearGradient x1="50%" y1="10.3116443%" x2="50%" y2="100%" id="linearGradient-1">
            <stop stop-color="#FFF0FE" stop-opacity="0.356091486" offset="0%"></stop>
            <stop stop-color="#D383CC" offset="100%"></stop>
        </linearGradient>
        <linearGradient x1="50%" y1="-9.66392739%" x2="50%" y2="108.511496%" id="linearGradient-2">
            <stop stop-color="#FFF0FE" stop-opacity="0.356091486" offset="0%"></stop>
            <stop stop-color="#D383CC" offset="100%"></stop>
        </linearGradient>
        <linearGradient x1="0.25781251%" y1="49.7500002%" x2="101.257813%" y2="49.7500002%" id="linearGradient-3">
            <stop stop-color="#3023AE" offset="0%"></stop>
            <stop stop-color="#53A0FD" offset="47.5247532%"></stop>
            <stop stop-color="#B4EC51" offset="100%"></stop>
        </linearGradient>
        <linearGradient x1="0%" y1="0%" x2="101.999998%" y2="100.999999%" id="linearGradient-4">
            <stop stop-color="#3023AE" offset="0%"></stop>
            <stop stop-color="#C86DD7" offset="100%"></stop>
        </linearGradient>
    </defs>
    <g id="Page-1" stroke="none" stroke-width="1" fill="none" fill-rule="evenodd">
        <g id="Landing" transform="translate(0.000000, -1324.000000)">
            <g id="Features" transform="translate(-360.000000, 618.000000)">
                <g id="Waves" transform="translate(0.000000, 706.000000)">
                    <path d="M309.366861,60.5140547 C309.366861,60.5140547 317.833638,-30.7398511 670.356051,79.3070234 C1022.87846,189.353898 1100.41413,140.939837 1225.51806,106.322648 C1350.622,71.7054596 1445.6084,8.50233728 1669.38157,112.478898 C1893.15475,216.45546 2114,45.9476484 2114,45.9476484 L2114,319.255498 C2114,319.255498 1806.46412,412.693744 1653.06947,312.09218 C1499.67482,211.490616 1386.75387,102.02576 985.949967,252.264055 C585.146069,402.50235 630.261897,150.408587 367.979483,191.182023 C105.697069,231.95546 309.366861,60.5140547 309.366861,60.5140547 Z" id="Path-25-Copy" fill="#E8EDFA" transform="translate(1174.000000, 191.869907) scale(-1, 1) translate(-1174.000000, -191.869907) "></path>
                    <path d="M264.264345,35.5140547 C264.264345,35.5140547 273.618333,-55.7398511 663.080594,54.3070234 C1052.54286,164.353898 1138.20326,115.939837 1276.4165,81.3226484 C1414.62973,46.7054596 1519.56949,-16.4976627 1766.79124,87.4788984 C2014.01298,191.45546 2258,20.9476484 2258,20.9476484 L2258,294.255498 C2258,294.255498 1918.23829,387.693744 1748.76983,287.09218 C1579.30138,186.490616 1454.54775,77.0257595 1011.74472,227.264055 C568.941694,377.50235 618.785085,125.408587 329.018822,166.182023 C39.2525596,206.95546 264.264345,35.5140547 264.264345,35.5140547 Z" id="Path-25" fill-opacity="0.5" fill="url(#linearGradient-1)"></path>
                    <path d="M88.074996,120.514055 C88.074996,120.514055 97.9694163,29.2601489 509.933108,139.307023 C921.8968,249.353898 1012.50629,200.939837 1158.70488,166.322648 C1304.90347,131.70546 1415.90619,68.5023373 1677.41134,172.478898 C1938.91648,276.45546 2197,105.947648 2197,105.947648 L2197,379.255498 C2197,379.255498 1837.60834,472.693744 1658.34874,372.09218 C1479.08914,271.490616 1347.12779,162.02576 878.741531,312.264055 C410.355273,462.50235 463.078398,210.408587 156.570704,251.182023 C-149.936989,291.95546 88.074996,120.514055 88.074996,120.514055 Z" id="Path-25" fill-opacity="0.5" fill="url(#linearGradient-2)" opacity="0.490729944" transform="translate(1098.500000, 251.869907) rotate(-180.000000) translate(-1098.500000, -251.869907) "></path>
                    <path d="M173.581065,95.9770328 C397.714839,79.9587736 378.832822,19.1217028 631.944193,142.838724 C885.055565,266.555746 1339.22085,74.9361116 1610.50533,199.896748 C1881.7898,324.857384 1979.01241,187.584418 2003.90862,173.942568 C2028.80483,160.300718 2035.62376,233.388134 2035.62376,233.388134 L2030.74384,358.445593 C2030.74384,358.445593 2154.21624,457.455533 2101.3952,500.091957 C2073.51532,522.596222 1929.72049,563.459113 1838.36001,491.508612 C1573.90862,283.241199 1547.47698,321.956516 1315.6507,353.692897 C1083.82441,385.429278 983.376365,309.119018 808.330514,318.453531 C633.284662,327.788044 636.909191,391.361027 402.034225,415.070801 C167.159259,438.780576 234.623757,345.59249 234.623757,345.59249 L234.623757,188.435299" id="Path-27" fill-opacity="0.200000003" fill="url(#linearGradient-3)" transform="translate(1144.058725, 299.532273) rotate(-3.000000) translate(-1144.058725, -299.532273) "></path>
                    <path d="M305.264345,153.514055 C305.264345,153.514055 338.626033,-90.8547034 664.080594,142.307023 C989.535156,375.46875 1560.56949,51.5023373 1807.79124,155.478898 C2055.01298,259.45546 2299,138.947648 2299,138.947648 L2299,412.255498 C2299,412.255498 2059.23829,455.693744 1889.76983,355.09218 C1720.30138,254.490616 1605.54775,175.02576 1162.74472,325.264055 C719.941694,475.50235 659.785085,243.408587 370.018822,284.182023 C80.2525596,324.95546 305.264345,153.514055 305.264345,153.514055 Z" id="Path-25" fill-opacity="0.100000001" fill="url(#linearGradient-4)" transform="translate(1260.500000, 231.545309) scale(-1, 1) translate(-1260.500000, -231.545309) "></path>
                </g>
            </g>
        </g>
    </g>
</svg>