<?xml version="1.0" encoding="UTF-8"?>
<svg width="18px" height="15px" viewBox="0 0 18 15" version="1.1" xmlns="http://www.w3.org/2000/svg" xmlns:xlink="http://www.w3.org/1999/xlink">
    <!-- Generator: Sketch 46.2 (44496) - http://www.bohemiancoding.com/sketch -->
    <title>Group 31</title>
    <desc>Created with Sketch.</desc>
    <defs>
        <linearGradient x1="0%" y1="271.283105%" x2="105.111626%" y2="-47.6902821%" id="linearGradient-1">
            <stop stop-color="#23BCBA" offset="0%"></stop>
            <stop stop-color="#45E994" offset="100%"></stop>
        </linearGradient>
    </defs>
    <g id="Page-1" stroke="none" stroke-width="1" fill="none" fill-rule="evenodd">
        <g id="Dideban" transform="translate(-127.000000, -148.000000)" fill-rule="nonzero" fill="url(#linearGradient-1)">
            <g id="Group-31" transform="translate(127.000000, 148.000000)">
                <g id="right-arrow-(1)">
                    <path d="M17.7603616,2.3939065 L15.7149094,0.251061703 C15.4809097,0.00586311611 15.1289283,-0.067336462 14.8232559,0.0652342025 C14.517529,0.197919152 14.3181655,0.510488779 14.3181655,0.857115353 L14.3181655,2.14287937 L0.818180888,2.14287937 C0.366326856,2.14287937 0,2.52664859 0,3.00001729 C0,3.47338599 0.366326856,3.85715521 0.818180888,3.85715521 L14.3181655,3.85715521 L14.3181655,5.14286208 C14.3181655,5.4895458 14.5174744,5.80211543 14.8232559,5.93474323 C14.9244376,5.97862869 15.0308011,6 15.1361828,6 C15.3490735,6 15.5583641,5.91291479 15.7148549,5.74891573 L17.7603071,3.60607094 C18.0798885,3.27133001 18.0798885,2.72864742 17.7603616,2.3939065 Z" id="XMLID_15_"></path>
                </g>
                <g id="right-arrow-(1)" transform="translate(9.000000, 12.000000) scale(-1, 1) translate(-9.000000, -12.000000) translate(0.000000, 9.000000)">
                    <path d="M17.7603616,2.3939065 L15.7149094,0.251061703 C15.4809097,0.00586311611 15.1289283,-0.067336462 14.8232559,0.0652342025 C14.517529,0.197919152 14.3181655,0.510488779 14.3181655,0.857115353 L14.3181655,2.14287937 L0.818180888,2.14287937 C0.366326856,2.14287937 0,2.52664859 0,3.00001729 C0,3.47338599 0.366326856,3.85715521 0.818180888,3.85715521 L14.3181655,3.85715521 L14.3181655,5.14286208 C14.3181655,5.4895458 14.5174744,5.80211543 14.8232559,5.93474323 C14.9244376,5.97862869 15.0308011,6 15.1361828,6 C15.3490735,6 15.5583641,5.91291479 15.7148549,5.74891573 L17.7603071,3.60607094 C18.0798885,3.27133001 18.0798885,2.72864742 17.7603616,2.3939065 Z" id="XMLID_15_"></path>
                </g>
            </g>
        </g>
    </g>
</svg>