<?xml version="1.0" encoding="UTF-8"?>
<svg width="21px" height="20px" viewBox="0 0 21 20" version="1.1" xmlns="http://www.w3.org/2000/svg" xmlns:xlink="http://www.w3.org/1999/xlink">
    <!-- Generator: Sketch 45.2 (43514) - http://www.bohemiancoding.com/sketch -->
    <title>house-black-silhouette-without-door</title>
    <desc>Created with Sketch.</desc>
    <defs>
        <linearGradient x1="-17.1298478%" y1="112.009887%" x2="87.1516674%" y2="25.3111438%" id="linearGradient-1">
            <stop stop-color="#23BCBA" offset="0%"></stop>
            <stop stop-color="#45E994" offset="100%"></stop>
        </linearGradient>
    </defs>
    <g id="Page-1" stroke="none" stroke-width="1" fill="none" fill-rule="evenodd">
        <g id="Stock" transform="translate(-410.000000, -35.000000)" fill-rule="nonzero" fill="url(#linearGradient-1)">
            <g id="Group-22" transform="translate(251.000000, 21.000000)">
                <g id="house-black-silhouette-without-door" transform="translate(159.710436, 14.000000)">
                    <path d="M19.7348534,9.49798046 C20.0971336,9.09954397 20.0621498,8.48885993 19.6567427,8.13433225 L10.7250814,0.319087948 C10.3196743,-0.0354397394 9.66970684,-0.0280130293 9.27283388,0.335830619 L0.310814332,8.55100977 C-0.0860586319,8.91485342 -0.105537459,9.5247557 0.267687296,9.91270358 L0.49237785,10.1467101 C0.86514658,10.534658 1.4676873,10.5809121 1.83732899,10.2497068 L2.50710098,9.64990228 L2.50710098,18.4311401 C2.50710098,18.9699023 2.94364821,19.4060586 3.48201954,19.4060586 L6.97543974,19.4060586 C7.51381107,19.4060586 7.95035831,18.9699023 7.95035831,18.4311401 L7.95035831,12.2878176 L12.4062541,12.2878176 L12.4062541,18.4311401 C12.3985016,18.9695114 12.7837134,19.4056678 13.3220847,19.4056678 L17.0242345,19.4056678 C17.5626059,19.4056678 17.9991531,18.9695114 17.9991531,18.4307492 L17.9991531,9.77355049 C17.9991531,9.77355049 18.1841694,9.93563518 18.4123779,10.1362215 C18.6401954,10.3364169 19.1186971,10.1758958 19.4809772,9.7770684 L19.7348534,9.49798046 Z" id="Shape"></path>
                </g>
            </g>
        </g>
    </g>
</svg>