<?xml version="1.0" encoding="UTF-8"?>
<svg width="26px" height="19px" viewBox="0 0 26 19" version="1.1" xmlns="http://www.w3.org/2000/svg" xmlns:xlink="http://www.w3.org/1999/xlink">
    <!-- Generator: Sketch 45.2 (43514) - http://www.bohemiancoding.com/sketch -->
    <title>logout</title>
    <desc>Created with Sketch.</desc>
    <defs>
        <linearGradient x1="0%" y1="100%" x2="139.774842%" y2="-16.5580747%" id="linearGradient-1">
            <stop stop-color="#00CA9D" offset="0%"></stop>
            <stop stop-color="#AEEFAA" offset="68.6742666%"></stop>
            <stop stop-color="#FBFFC1" offset="100%"></stop>
        </linearGradient>
    </defs>
    <g id="Page-1" stroke="none" stroke-width="1" fill="none" fill-rule="evenodd">
        <g id="Stock" transform="translate(-36.000000, -919.000000)" fill-rule="nonzero" fill="url(#linearGradient-1)">
            <g id="Group-25" transform="translate(27.000000, 808.000000)">
                <g id="Group-26" transform="translate(0.000000, 98.000000)">
                    <g id="logout" transform="translate(9.000000, 13.000000)">
                        <path d="M3.92045953,10.5641813 L17.2240555,10.5641813 C17.8582126,10.5641813 18.372336,10.0500578 18.372336,9.41590069 C18.372336,8.78174361 17.8582126,8.26762012 17.2240555,8.26762012 L3.92045953,8.26762012 L5.40510976,6.78304644 C5.8535516,6.33468116 5.8535516,5.6075899 5.40510976,5.15914806 C4.95682102,4.71070622 4.22972976,4.71070622 3.78121137,5.15914806 L0.336599312,8.60376012 C0.309959202,8.63032367 0.284850134,8.65811206 0.260965898,8.68720184 C0.255147943,8.69432118 0.250172061,8.70197638 0.24450721,8.70924883 C0.226976793,8.73152547 0.209752584,8.75387866 0.193982865,8.77745669 C0.189389742,8.78434638 0.185638692,8.79161882 0.181122122,8.79858505 C0.165352402,8.82323481 0.149888891,8.84811422 0.13595642,8.87406536 C0.133277098,8.87919435 0.131057089,8.88462955 0.128377768,8.88975853 C0.113909433,8.91785313 0.0999769618,8.94633049 0.0878051877,8.97572647 C0.086274147,8.97932442 0.0852024184,8.98315202 0.0837479297,8.98682652 C0.0712699475,9.01775354 0.0597105897,9.04906332 0.0499119289,9.08129173 C0.0486105442,9.08534899 0.0479215759,9.08955935 0.0467732953,9.09369316 C0.0375104987,9.12530915 0.0290132225,9.15723135 0.0225062992,9.18991907 C0.0205924983,9.19964118 0.0197504258,9.2096695 0.017989729,9.21946816 C0.0132435026,9.24656758 0.00849727623,9.273667 0.0058179549,9.30130229 C0.00191380095,9.33919555 0,9.37747157 0,9.41590069 C0,9.45432981 0.00191380095,9.49260583 0.0058179549,9.53057564 C0.00849727623,9.55859369 0.0133966067,9.58592277 0.018066281,9.61325184 C0.0197504258,9.6227443 0.0205924983,9.63246641 0.0225062992,9.64188231 C0.0290897745,9.67487623 0.0375104987,9.70710464 0.0468498473,9.73902684 C0.0479981279,9.74277789 0.0486870962,9.7467586 0.0498353768,9.75050965 C0.0597105897,9.78289116 0.0712699475,9.81450715 0.0839010338,9.84574038 C0.0852789705,9.84910867 0.086274147,9.85270662 0.0877286357,9.85607491 C0.0999769618,9.88570055 0.113985985,9.91433101 0.128607424,9.94257871 C0.131133641,9.94755459 0.133277098,9.95276013 0.135879868,9.95773602 C0.149965443,9.98384026 0.165505506,10.0089493 0.181504882,10.0338287 C0.185791797,10.0405653 0.189466294,10.0476847 0.193906313,10.0542681 C0.209752584,10.0779227 0.227129897,10.100429 0.244583762,10.1227822 C0.250172061,10.1299781 0.255147943,10.1375568 0.260889346,10.1445995 C0.284850134,10.1736128 0.309959202,10.2014777 0.33652276,10.2280413 L3.78113482,13.6726533 C4.00535574,13.8969508 4.29923901,14.009023 4.59312229,14.009023 C4.88700556,14.009023 5.18088884,13.8969508 5.4050332,13.6726533 C5.85347504,13.2242115 5.85347504,12.4971968 5.4050332,12.0487549 L3.92045953,10.5641813 Z" id="XMLID_4_"></path>
                        <path d="M15.869161,0.0228890594 C12.7348143,0.0228890594 9.81864096,1.57781406 8.06827861,4.18219095 C7.71460819,4.70848621 7.85454532,5.4219512 8.38084058,5.77569817 C8.9072124,6.12936859 9.62060084,5.98958457 9.97442436,5.4631362 C11.2973201,3.49460054 13.5009471,2.31937365 15.869161,2.31937365 C19.7821184,2.3194502 22.9656114,5.50286671 22.9656114,9.41590069 C22.9656114,13.3289347 19.7821184,16.5123512 15.869161,16.5123512 C13.5079133,16.5123512 11.3078843,15.3424064 9.98399336,13.3828273 C9.62886846,12.8572976 8.91525036,12.7191977 8.38964407,13.0741695 C7.86419088,13.4292178 7.7259379,14.142989 8.08098625,14.6684422 C9.83257343,17.2611067 12.7440005,18.8089123 15.869161,18.8089123 C21.0484422,18.8089123 25.2621726,14.5952585 25.2621726,9.41590069 C25.2621726,4.23654289 21.0484422,0.0228890594 15.869161,0.0228890594 Z" id="XMLID_5_"></path>
                    </g>
                </g>
            </g>
        </g>
    </g>
</svg>