<?xml version="1.0" encoding="UTF-8"?>
<svg width="16px" height="15px" viewBox="0 0 16 15" version="1.1" xmlns="http://www.w3.org/2000/svg" xmlns:xlink="http://www.w3.org/1999/xlink">
    <!-- Generator: Sketch 46 (44423) - http://www.bohemiancoding.com/sketch -->
    <title>002-web</title>
    <desc>Created with Sketch.</desc>
    <defs>
        <linearGradient x1="-26.6491789%" y1="100%" x2="156.193602%" y2="-30.3134655%" id="linearGradient-1">
            <stop stop-color="#00CA9D" offset="0%"></stop>
            <stop stop-color="#AEEFAA" offset="68.6742666%"></stop>
            <stop stop-color="#FBFFC1" offset="100%"></stop>
        </linearGradient>
    </defs>
    <g id="Page-1" stroke="none" stroke-width="1" fill="none" fill-rule="evenodd">
        <g id="Dideban" transform="translate(-88.000000, -148.000000)" fill-rule="nonzero" fill="url(#linearGradient-1)">
            <g id="Group-25" transform="translate(81.000000, 140.000000)">
                <g id="002-web" transform="translate(7.000000, 8.000000)">
                    <path d="M2.63213398,2.95890684 C2.41556395,3.24480099 2.26267197,3.29690016 2.26267197,3.05496467 L2.26267197,2.61602923 C2.26267197,1.98660624 1.75615669,1.47636007 1.13133599,1.47636007 C0.506515283,1.47636007 0,1.98660624 0,2.61602923 L0,6.52346637 C0,7.15288937 0.506515283,7.66313554 1.13133599,7.66313554 L5.01020223,7.66313554 C5.63502293,7.66313554 6.14153821,7.15288937 6.14153821,6.52346637 C6.14153821,5.89404337 5.63502293,5.38379721 5.01020223,5.38379721 C5.01020223,5.38379721 4.82304693,5.38379721 4.59193115,5.38379721 C4.36081537,5.38379721 4.29584436,5.11776586 4.49172711,4.81721882 C5.38128043,3.45384888 6.90632134,2.60463254 8.55451625,2.60463254 C11.2341663,2.60463254 13.4140892,4.80061221 13.4140892,7.50000004 C13.4140892,10.1990622 11.2341663,12.3950419 8.55451625,12.3950419 C7.84048163,12.3950419 7.26156084,12.9782269 7.26156084,13.697521 C7.26156084,14.416815 7.84048163,15 8.55451625,15 C12.6599729,15.0003256 16,11.6356966 16,7.50032566 C16,3.36462907 12.6599729,7.07471453e-08 8.55451625,7.07471453e-08 C6.20747894,-0.000325549014 4.02270753,1.12338825 2.63213398,2.95890684 Z" id="Shape"></path>
                </g>
            </g>
        </g>
    </g>
</svg>