<?xml version="1.0" encoding="UTF-8"?>
<svg width="21px" height="20px" viewBox="0 0 21 20" version="1.1" xmlns="http://www.w3.org/2000/svg" xmlns:xlink="http://www.w3.org/1999/xlink">
    <!-- Generator: Sketch 45.2 (43514) - http://www.bohemiancoding.com/sketch -->
    <title>004-musica-searcher</title>
    <desc>Created with Sketch.</desc>
    <defs>
        <linearGradient x1="0%" y1="92.7420999%" x2="111.292555%" y2="0%" id="linearGradient-1">
            <stop stop-color="#00CA9D" offset="0%"></stop>
            <stop stop-color="#AEEFAA" offset="68.6742666%"></stop>
            <stop stop-color="#FBFFC1" offset="100%"></stop>
        </linearGradient>
    </defs>
    <g id="Page-1" stroke="none" stroke-width="1" fill="none" fill-rule="evenodd">
        <g id="Stock" transform="translate(-361.000000, -35.000000)" fill-rule="nonzero" fill="url(#linearGradient-1)">
            <g id="Group-22" transform="translate(251.000000, 21.000000)">
                <g id="004-musica-searcher" transform="translate(110.726025, 14.000000)">
                    <path d="M19.4570518,17.0999203 L15.1240637,12.767012 C15.1010359,12.7439841 15.0740239,12.7278884 15.0499602,12.7064542 C15.9025498,11.4131474 16.4001594,9.86501992 16.4001594,8.20015936 C16.4001594,3.67131474 12.7288446,0 8.20007968,0 C3.67131474,0 0,3.67131474 0,8.20007968 C0,12.7287649 3.67123506,16.4001594 8.2,16.4001594 C9.86494024,16.4001594 11.412988,15.9025498 12.7062948,15.0499602 C12.7277291,15.0739442 12.743745,15.1009562 12.7667729,15.1239841 L17.0998406,19.4570518 C17.750757,20.1078884 18.8060558,20.1078884 19.4570518,19.4570518 C20.1078884,18.8061355 20.1078884,17.7508367 19.4570518,17.0999203 Z M8.20007968,13.5574502 C5.24119522,13.5574502 2.84262948,11.1588845 2.84262948,8.20007968 C2.84262948,5.24119522 5.2412749,2.84262948 8.20007968,2.84262948 C11.1588048,2.84262948 13.5574502,5.2412749 13.5574502,8.20007968 C13.5574502,11.1588845 11.1588048,13.5574502 8.20007968,13.5574502 Z" id="Shape"></path>
                </g>
            </g>
        </g>
    </g>
</svg>