<?xml version="1.0" encoding="UTF-8"?>
<svg width="14px" height="15px" viewBox="0 0 14 15" version="1.1" xmlns="http://www.w3.org/2000/svg" xmlns:xlink="http://www.w3.org/1999/xlink">
    <!-- Generator: Sketch 45.2 (43514) - http://www.bohemiancoding.com/sketch -->
    <title>Shape</title>
    <desc>Created with Sketch.</desc>
    <defs>
        <linearGradient x1="-15.7072917%" y1="-9.28322449%" x2="118.087228%" y2="114.550123%" id="linearGradient-1">
            <stop stop-color="#00CA9D" offset="0%"></stop>
            <stop stop-color="#AEEFAA" offset="68.6742666%"></stop>
            <stop stop-color="#FBFFC1" offset="100%"></stop>
        </linearGradient>
    </defs>
    <g id="Page-1" stroke="none" stroke-width="1" fill="none" fill-rule="evenodd">
        <g id="Dideban" transform="translate(-1272.000000, -148.000000)" fill="url(#linearGradient-1)">
            <g id="Group-25" transform="translate(81.000000, 140.000000)">
                <path d="M1195.93438,14.4461207 L1192.29844,14.4461207 C1191.58125,14.4461207 1191,13.8432112 1191,13.1029095 L1191,9.34321121 C1191,8.6012931 1191.58281,8 1192.29844,8 L1195.9375,8 C1196.28437,8 1196.60938,8.13900862 1196.85469,8.39278017 C1197.1,8.64655172 1197.23438,8.984375 1197.23281,9.34321121 L1197.23281,13.1029095 C1197.23281,13.8448276 1196.65156,14.4461207 1195.93438,14.4461207 L1195.93438,14.4461207 Z M1196.17031,9.33836207 C1196.17031,9.2737069 1196.14687,9.21713362 1196.10156,9.16540948 C1196.07656,9.13954741 1196.02031,9.09590517 1195.93906,9.09590517 L1192.29844,9.09590517 C1192.16875,9.09590517 1192.0625,9.20581897 1192.0625,9.33997845 L1192.0625,13.1029095 C1192.0625,13.237069 1192.16875,13.3469828 1192.29844,13.3469828 L1195.93281,13.3469828 C1196.0625,13.3469828 1196.16875,13.237069 1196.16875,13.1029095 L1196.16875,9.33836207 L1196.17031,9.33836207 Z M1195.93438,22.4682112 L1192.29844,22.4682112 C1191.58281,22.4682112 1191,21.8653017 1191,21.125 L1191,17.3653017 C1191,16.6233836 1191.58281,16.0220905 1192.29844,16.0220905 L1195.9375,16.0220905 C1196.28437,16.0220905 1196.60938,16.1610991 1196.85469,16.4148707 C1197.1,16.6686422 1197.23438,17.0064655 1197.23281,17.3653017 L1197.23281,21.125 C1197.23281,21.8653017 1196.65156,22.4682112 1195.93438,22.4682112 L1195.93438,22.4682112 Z M1196.17031,17.3604526 C1196.17031,17.2957974 1196.14687,17.2392241 1196.10156,17.1875 C1196.07656,17.1616379 1196.02031,17.1179957 1195.93906,17.1179957 L1192.29844,17.1179957 C1192.16875,17.1179957 1192.0625,17.2279095 1192.0625,17.362069 L1192.0625,21.125 C1192.0625,21.2591595 1192.16875,21.3690733 1192.29844,21.3690733 L1195.93281,21.3690733 C1196.0625,21.3690733 1196.16875,21.2591595 1196.16875,21.125 L1196.16875,17.3604526 L1196.17031,17.3604526 Z M1203.68906,14.4461207 L1200.05313,14.4461207 C1199.33594,14.4461207 1198.75469,13.8432112 1198.75469,13.1029095 L1198.75469,9.34321121 C1198.75469,8.6012931 1199.3375,8 1200.05313,8 L1203.69063,8 C1204.0375,8 1204.3625,8.13900862 1204.60781,8.39278017 C1204.85313,8.64655172 1204.9875,8.984375 1204.98594,9.34321121 L1204.98594,13.1029095 C1204.9875,13.8448276 1204.40469,14.4461207 1203.68906,14.4461207 L1203.68906,14.4461207 Z M1203.92344,9.33836207 C1203.92344,9.2737069 1203.9,9.21713362 1203.85469,9.16540948 C1203.82969,9.13954741 1203.77344,9.09590517 1203.69219,9.09590517 L1200.05313,9.09590517 C1199.92344,9.09590517 1199.81719,9.20581897 1199.81719,9.33997845 L1199.81719,13.1029095 C1199.81719,13.237069 1199.92344,13.3469828 1200.05313,13.3469828 L1203.6875,13.3469828 C1203.81719,13.3469828 1203.92344,13.237069 1203.92344,13.1029095 L1203.92344,9.33836207 L1203.92344,9.33836207 Z M1203.68906,22.4682112 L1200.05313,22.4682112 C1199.33594,22.4682112 1198.75469,21.8653017 1198.75469,21.125 L1198.75469,17.3653017 C1198.75469,16.6233836 1199.3375,16.0220905 1200.05313,16.0220905 L1203.69063,16.0220905 C1204.0375,16.0220905 1204.3625,16.1610991 1204.60781,16.4148707 C1204.85313,16.6686422 1204.9875,17.0064655 1204.98594,17.3653017 L1204.98594,21.125 C1204.9875,21.8653017 1204.40469,22.4682112 1203.68906,22.4682112 L1203.68906,22.4682112 Z M1203.92344,17.3604526 C1203.92344,17.2957974 1203.9,17.2392241 1203.85469,17.1875 C1203.82969,17.1616379 1203.77344,17.1179957 1203.69219,17.1179957 L1200.05313,17.1179957 C1199.92344,17.1179957 1199.81719,17.2279095 1199.81719,17.362069 L1199.81719,21.125 C1199.81719,21.2591595 1199.92344,21.3690733 1200.05313,21.3690733 L1203.6875,21.3690733 C1203.81719,21.3690733 1203.92344,21.2591595 1203.92344,21.125 L1203.92344,17.3604526 L1203.92344,17.3604526 Z" id="Shape" transform="translate(1197.992975, 15.234106) scale(1, -1) translate(-1197.992975, -15.234106) "></path>
            </g>
        </g>
    </g>
</svg>