<?xml version="1.0" encoding="UTF-8"?>
<svg width="25px" height="21px" viewBox="0 0 25 21" version="1.1" xmlns="http://www.w3.org/2000/svg" xmlns:xlink="http://www.w3.org/1999/xlink">
    <!-- Generator: Sketch 45.2 (43514) - http://www.bohemiancoding.com/sketch -->
    <title>table-grid</title>
    <desc>Created with Sketch.</desc>
    <defs>
        <linearGradient x1="-4.67248586%" y1="100%" x2="114.488577%" y2="0%" id="linearGradient-1">
            <stop stop-color="#00CA9D" offset="0%"></stop>
            <stop stop-color="#AEEFAA" offset="68.6742666%"></stop>
            <stop stop-color="#FBFFC1" offset="100%"></stop>
        </linearGradient>
    </defs>
    <g id="Page-1" stroke="none" stroke-width="1" fill="none" fill-rule="evenodd">
        <g id="Stock" transform="translate(-311.000000, -34.000000)" fill-rule="nonzero" fill="url(#linearGradient-1)">
            <g id="Group-22" transform="translate(251.000000, 21.000000)">
                <g id="table-grid" transform="translate(60.000000, 13.000000)">
                    <path d="M23.7601753,0.718620407 C23.2996056,0.258153689 22.7463971,0.0280489953 22.0996233,0.0280489953 L2.35107193,0.0280489953 C1.70455546,0.0280489953 1.15103813,0.258153689 0.690571411,0.718620407 C0.230207626,1.17919006 0,1.73250152 0,2.3791724 L0,18.3661733 C0,19.0128957 0.230207626,19.5657954 0.690571411,20.0265195 C1.15103813,20.4870891 1.70450399,20.7169365 2.35107193,20.7169365 L22.0996233,20.7169365 C22.7463456,20.7169365 23.2995542,20.4870891 23.7601753,20.0265195 C24.2205391,19.5657954 24.4505923,19.0125869 24.4505923,18.3661733 L24.4505923,2.3791724 C24.4505923,1.73250152 24.2205391,1.17903566 23.7601753,0.718620407 Z M7.52346107,18.3656587 C7.52346107,18.5032274 7.47925173,18.6155778 7.39098747,18.7038421 C7.30287759,18.7919005 7.19032135,18.8356981 7.05300994,18.8356981 L2.35107193,18.8356981 C2.21406932,18.8356981 2.10130721,18.791849 2.01309441,18.7038421 C1.92493307,18.6155778 1.8809296,18.5032274 1.8809296,18.3656587 L1.8809296,15.54429 C1.8809296,15.4069271 1.92493307,15.2945253 2.01309441,15.2066727 C2.10130721,15.1182026 2.21406932,15.0741991 2.35107193,15.0741991 L7.05316434,15.0741991 C7.19042428,15.0741991 7.30318639,15.1182026 7.39114186,15.2066727 C7.47920027,15.2945253 7.5234096,15.4069271 7.5234096,15.54429 L7.5234096,18.3656587 L7.52346107,18.3656587 Z M7.52346107,12.7234875 C7.52346107,12.8605416 7.47925173,12.9733037 7.39098747,13.0613106 C7.30287759,13.1495234 7.19032135,13.1935269 7.05300994,13.1935269 L2.35107193,13.1935269 C2.21406932,13.1935269 2.10130721,13.1495234 2.01309441,13.0613106 C1.92493307,12.9732522 1.8809296,12.8605416 1.8809296,12.7234875 L1.8809296,9.90217027 C1.8809296,9.76506472 1.92493307,9.65235408 2.01309441,9.56419274 C2.10130721,9.47623727 2.21406932,9.43218233 2.35107193,9.43218233 L7.05316434,9.43218233 C7.19042428,9.43218233 7.30298053,9.4761858 7.39114186,9.56419274 C7.47920027,9.65235408 7.5234096,9.76506472 7.5234096,9.90217027 L7.5234096,12.7234875 L7.52346107,12.7234875 Z M7.52346107,7.08105893 C7.52346107,7.21826741 7.47925173,7.33082366 7.39098747,7.41903646 C7.30287759,7.50699193 7.19032135,7.55120127 7.05300994,7.55120127 L2.35107193,7.55120127 C2.21406932,7.55120127 2.10130721,7.50699193 2.01309441,7.41903646 C1.92493307,7.33077219 1.8809296,7.21826741 1.8809296,7.08105893 L1.8809296,4.25984466 C1.8809296,4.12263619 1.92493307,4.00992554 2.01309441,3.92186714 C2.10130721,3.8337058 2.21406932,3.78970233 2.35107193,3.78970233 L7.05316434,3.78970233 C7.19042428,3.78970233 7.30298053,3.8337058 7.39114186,3.92186714 C7.47920027,4.00992554 7.5234096,4.12263619 7.5234096,4.25984466 L7.5234096,7.08105893 L7.52346107,7.08105893 Z M15.0467163,18.3656587 C15.0467163,18.5032274 15.0027128,18.6155778 14.9148088,18.7038421 C14.8267504,18.7919005 14.7140912,18.8356981 14.5766769,18.8356981 L9.87427567,18.8356981 C9.73722159,18.8356981 9.62451095,18.791849 9.53629815,18.7038421 C9.44813681,18.6155778 9.40413334,18.5032274 9.40413334,18.3656587 L9.40413334,15.54429 C9.40413334,15.4069271 9.44813681,15.2945253 9.53629815,15.2066727 C9.62451095,15.1182026 9.73722159,15.0741991 9.87427567,15.0741991 L14.576471,15.0741991 C14.7138339,15.0741991 14.8265445,15.1182026 14.9146029,15.2066727 C15.0023011,15.2945253 15.046356,15.4069271 15.046356,15.54429 L15.046356,18.3656072 L15.0467163,18.3656072 L15.0467163,18.3656587 Z M15.0467163,12.7234875 C15.0467163,12.8605416 15.0027128,12.9733037 14.9148088,13.0613106 C14.8267504,13.1495234 14.7140912,13.1935269 14.5766769,13.1935269 L9.87427567,13.1935269 C9.73722159,13.1935269 9.62451095,13.1495234 9.53629815,13.0613106 C9.44813681,12.9732522 9.40413334,12.8605416 9.40413334,12.7234875 L9.40413334,9.90217027 C9.40413334,9.76506472 9.44813681,9.65235408 9.53629815,9.56419274 C9.62451095,9.47623727 9.73722159,9.43218233 9.87427567,9.43218233 L14.576471,9.43218233 C14.7138339,9.43218233 14.8265445,9.4761858 14.9146029,9.56419274 C15.0023011,9.65235408 15.046356,9.76506472 15.046356,9.90217027 L15.046356,12.7234875 L15.0467163,12.7234875 Z M15.0467163,7.08105893 C15.0467163,7.21826741 15.0027128,7.33082366 14.9148088,7.41903646 C14.8267504,7.50699193 14.7140912,7.55120127 14.5766769,7.55120127 L9.87427567,7.55120127 C9.73722159,7.55120127 9.62451095,7.50699193 9.53629815,7.41903646 C9.44813681,7.33077219 9.40413334,7.21826741 9.40413334,7.08105893 L9.40413334,4.25984466 C9.40413334,4.12263619 9.44813681,4.00992554 9.53629815,3.92186714 C9.62451095,3.8337058 9.73722159,3.78970233 9.87427567,3.78970233 L14.576471,3.78970233 C14.7138339,3.78970233 14.8265445,3.8337058 14.9146029,3.92186714 C15.0023011,4.00992554 15.046356,4.12263619 15.046356,4.25984466 L15.046356,7.08105893 L15.0467163,7.08105893 L15.0467163,7.08105893 Z M22.5697141,18.3656587 C22.5697141,18.5032274 22.5257107,18.6155778 22.4378581,18.7038421 C22.3494395,18.7919005 22.2367288,18.8356981 22.0996747,18.8356981 L17.3980455,18.8356981 C17.2604768,18.8356981 17.1478176,18.791849 17.0599136,18.7038421 C16.9718552,18.6155778 16.9281605,18.5032274 16.9281605,18.3656587 L16.9281605,15.54429 C16.9281605,15.4069271 16.9718552,15.2945253 17.0599136,15.2066727 C17.1478176,15.1182026 17.2604768,15.0741991 17.3980455,15.0741991 L22.0996747,15.0741991 C22.2367288,15.0741991 22.3494909,15.1182026 22.4378581,15.2066727 C22.5257107,15.2945253 22.5697141,15.4069271 22.5697141,15.54429 L22.5697141,18.3656587 Z M22.5697141,12.7234875 C22.5697141,12.8605416 22.5257107,12.9733037 22.4378581,13.0613106 C22.3494395,13.1495234 22.2367288,13.1935269 22.0996747,13.1935269 L17.3980455,13.1935269 C17.2604768,13.1935269 17.1478176,13.1495234 17.0599136,13.0613106 C16.9718552,12.9732522 16.9281605,12.8605416 16.9281605,12.7234875 L16.9281605,9.90217027 C16.9281605,9.76506472 16.9718552,9.65235408 17.0599136,9.56419274 C17.1478176,9.47623727 17.2604768,9.43218233 17.3980455,9.43218233 L22.0996747,9.43218233 C22.2367288,9.43218233 22.3494909,9.4761858 22.4378581,9.56419274 C22.5257107,9.65235408 22.5697141,9.76506472 22.5697141,9.90217027 L22.5697141,12.7234875 Z M22.5697141,7.08105893 C22.5697141,7.21826741 22.5257107,7.33082366 22.4378581,7.41903646 C22.3494395,7.50699193 22.2367288,7.55120127 22.0996747,7.55120127 L17.3980455,7.55120127 C17.2604768,7.55120127 17.1478176,7.50699193 17.0599136,7.41903646 C16.9718552,7.33077219 16.9281605,7.21826741 16.9281605,7.08105893 L16.9281605,4.25984466 C16.9281605,4.12263619 16.9718552,4.00992554 17.0599136,3.92186714 C17.1478176,3.8337058 17.2604768,3.78970233 17.3980455,3.78970233 L22.0996747,3.78970233 C22.2367288,3.78970233 22.3494909,3.8337058 22.4378581,3.92186714 C22.5257107,4.00992554 22.5697141,4.12263619 22.5697141,4.25984466 L22.5697141,7.08105893 Z" id="Shape"></path>
                </g>
            </g>
        </g>
    </g>
</svg>